<svg xmlns="http://www.w3.org/2000/svg" viewBox="0 0 48 48">
  <path fill="#FF5F00" d="M24,34.7c-2.1-1.8-4.9-2.9-7.9-2.9c-3,0-5.8,1.1-7.9,2.9c-2.1-1.8-3.5-4.5-3.5-7.5s1.3-5.7,3.5-7.5c2.1-1.8,4.9-2.9,7.9-2.9c3,0,5.8,1.1,7.9,2.9"/>
  <path fill="#EB001B" d="M24,34.7c2.1-1.8,3.5-4.5,3.5-7.5s-1.3-5.7-3.5-7.5c-2.1-1.8-4.9-2.9-7.9-2.9c-3,0-5.8,1.1-7.9,2.9"/>
  <path fill="#F79E1B" d="M43.3,27.2c0,3-1.3,5.7-3.5,7.5c-2.1,1.8-4.9,2.9-7.9,2.9c-3,0-5.8-1.1-7.9-2.9c2.1-1.8,3.5-4.5,3.5-7.5s-1.3-5.7-3.5-7.5c2.1-1.8,4.9-2.9,7.9-2.9c3,0,5.8,1.1,7.9,2.9C41.9,21.5,43.3,24.2,43.3,27.2z"/>
</svg> 