<svg xmlns="http://www.w3.org/2000/svg" viewBox="0 0 48 48">
  <path fill="#1565C0" d="M13.5,24.3c0,0.9,0.7,1.6,1.6,1.6h3.2c3.6,0,6.5-2.9,6.5-6.5s-2.9-6.5-6.5-6.5h-3.2c-0.9,0-1.6,0.7-1.6,1.6V24.3z"/>
  <path fill="#039BE5" d="M35.5,19.4c0-3.6-2.9-6.5-6.5-6.5h-3.2c-0.9,0-1.6,0.7-1.6,1.6v9.8c0,0.9,0.7,1.6,1.6,1.6h3.2C32.6,25.9,35.5,23,35.5,19.4z"/>
  <path fill="#283593" d="M35.5,28.6c0-3.6-2.9-6.5-6.5-6.5h-3.2c-0.9,0-1.6,0.7-1.6,1.6v9.8c0,0.9,0.7,1.6,1.6,1.6h3.2C32.6,35.1,35.5,32.2,35.5,28.6z"/>
</svg> 