<svg xmlns="http://www.w3.org/2000/svg" viewBox="0 0 48 48">
  <path fill="#1565C0" d="M45,35c0,2.209-1.791,4-4,4H7c-2.209,0-4-1.791-4-4V13c0-2.209,1.791-4,4-4h34c2.209,0,4,1.791,4,4V35z"/>
  <path fill="#FFF" d="M15.186 19l-2.626 7.832c0 0-.667-3.313-.733-3.729-1.495-3.411-3.701-3.221-3.701-3.221L10.726 30v-.002h3.161L18.258 19H15.186zM17.689 30L20.56 19h2.799l-2.87 11H17.689zM24.233 19l-2.868 7.873L20.27 19h-2.967l2.717 11 5.087.003L28.225 19M37.845 19h-2.604l-4.917 11h2.604l.807-1.825h4.342l.479 1.825h2.604L37.845 19zM34.263 26.076l1.447-3.235 1.346 3.235H34.263z"/>
</svg> 